<svg xmlns="http://www.w3.org/2000/svg" viewBox="0 0 512 512" width="512" height="512">
  <rect width="512" height="512" rx="100" fill="#4f46e5"/>
  <rect x="112" y="136" width="288" height="240" rx="20" fill="none" stroke="white" stroke-width="20"/>
  <line x1="112" y1="200" x2="400" y2="200" stroke="white" stroke-width="20"/>
  <line x1="188" y1="136" x2="188" y2="108" stroke="white" stroke-width="20" stroke-linecap="round"/>
  <line x1="324" y1="136" x2="324" y2="108" stroke="white" stroke-width="20" stroke-linecap="round"/>
  <rect x="152" y="248" width="52" height="16" rx="8" fill="white"/>
  <rect x="228" y="248" width="52" height="16" rx="8" fill="white"/>
  <rect x="304" y="248" width="52" height="16" rx="8" fill="white"/>
  <rect x="152" y="288" width="52" height="16" rx="8" fill="white"/>
  <rect x="228" y="288" width="52" height="16" rx="8" fill="white"/>
  <rect x="304" y="288" width="52" height="16" rx="8" fill="white"/>
  <rect x="152" y="328" width="52" height="16" rx="8" fill="white"/>
  <rect x="228" y="328" width="52" height="16" rx="8" fill="white"/>
</svg>
