<svg xmlns="http://www.w3.org/2000/svg" viewBox="0 0 192 192" width="192" height="192">
  <rect width="192" height="192" rx="40" fill="#4f46e5"/>
  <rect x="44" y="52" width="104" height="88" rx="8" fill="none" stroke="white" stroke-width="8"/>
  <line x1="44" y1="76" x2="148" y2="76" stroke="white" stroke-width="8"/>
  <line x1="72" y1="52" x2="72" y2="44" stroke="white" stroke-width="8" stroke-linecap="round"/>
  <line x1="120" y1="52" x2="120" y2="44" stroke="white" stroke-width="8" stroke-linecap="round"/>
  <rect x="60" y="94" width="20" height="6" rx="3" fill="white"/>
  <rect x="88" y="94" width="20" height="6" rx="3" fill="white"/>
  <rect x="116" y="94" width="20" height="6" rx="3" fill="white"/>
  <rect x="60" y="110" width="20" height="6" rx="3" fill="white"/>
  <rect x="88" y="110" width="20" height="6" rx="3" fill="white"/>
  <rect x="116" y="110" width="20" height="6" rx="3" fill="white"/>
  <rect x="60" y="126" width="20" height="6" rx="3" fill="white"/>
  <rect x="88" y="126" width="20" height="6" rx="3" fill="white"/>
</svg>
